<?xml version="1.0" encoding="UTF-8" standalone="no"?>
<!DOCTYPE svg PUBLIC "-//W3C//DTD SVG 1.1//EN" "http://www.w3.org/Graphics/SVG/1.1/DTD/svg11.dtd">
<svg width="100%" height="100%" viewBox="0 0 711 720" version="1.1" xmlns="http://www.w3.org/2000/svg" xmlns:xlink="http://www.w3.org/1999/xlink" xml:space="preserve" xmlns:serif="http://www.serif.com/" style="fill-rule:evenodd;clip-rule:evenodd;stroke-linejoin:round;stroke-miterlimit:2;">
    <path d="M701.926,0c9.374,36.607 12.733,83.361 -7.54,130.191c-32.028,73.954 -112.584,125.139 -239.377,152.538c-10.239,2.646 -49.862,11.893 -54.161,12.873l1.323,-0l162.128,11.562c-0,-0 -16.51,92.779 -139.677,37.308l286.241,205.94l-0,169.588l-312.799,0c-44.747,-120.418 -123.45,-272.994 -242.533,-245.098c-9.247,27.068 -34.674,46.555 -65.05,46.555c-37.969,-0 -68.675,-30.706 -68.675,-68.687c0.331,-22.451 11.55,-42.587 28.391,-55.129c6.272,-4.961 14.196,-9.247 23.774,-12.885l163.439,-62.735c-8.917,0.661 -17.491,0.992 -25.746,0.992c-55.153,-0 -100.716,-13.534 -136.37,-40.945c-77.261,-59.097 -75.289,-159.483 -75.289,-163.439c0.33,-12.873 11.231,-23.443 24.104,-22.781c12.885,0.33 23.443,11.219 22.782,24.104c-0,0.661 -1.642,80.237 56.794,124.808c13.865,10.57 30.045,18.495 48.208,23.774c-52.164,-49.862 -54.81,-123.816 -54.81,-127.454c-0.33,-12.873 9.909,-23.774 22.782,-24.104c12.885,-0.331 23.773,9.908 24.104,22.781c-0,0.661 2.315,68.357 51.185,103.68c10.227,7.263 21.789,12.885 34.662,16.511c-37.639,-39.954 -39.623,-95.095 -39.623,-97.74c-0.33,-12.873 9.909,-23.774 22.782,-24.104c12.885,-0.319 23.773,9.908 24.104,22.793c-0,0.662 2.315,50.511 37.32,75.939c22.12,16.179 53.818,18.825 94.433,10.9c54.149,-10.57 88.48,-30.706 102.357,-60.432c20.797,-44.24 -9.247,-99.712 -9.909,-100.704c-7.263,-12.872 -2.645,-29.383 10.24,-36.646c12.873,-7.263 29.383,-2.976 36.646,10.227c1.654,2.976 35.324,63.396 20.467,125.8c9.908,-9.565 17.502,-19.805 22.781,-31.367c28.734,-61.412 -12.542,-136.358 -13.203,-137.681c-3.005,-5.326 -3.977,-11.274 -3.17,-16.933l54.887,-0c11.732,24.592 38.944,92.577 17.619,159.244c16.841,-14.857 29.065,-31.368 36.99,-49.862c17.058,-39.147 10.484,-80.051 0.883,-109.382l56.506,-0Zm-390.881,399.282c13.865,-0 25.427,-11.219 25.427,-25.415c-0,-13.877 -11.231,-25.427 -25.427,-25.427c-13.865,-0 -25.427,11.219 -25.427,25.427c-0,13.865 11.562,25.415 25.427,25.415Z" style="fill:#fafbff;"/>
</svg>
