<?xml version="1.0" encoding="UTF-8" standalone="no"?>
<!DOCTYPE svg PUBLIC "-//W3C//DTD SVG 1.1//EN" "http://www.w3.org/Graphics/SVG/1.1/DTD/svg11.dtd">
<svg width="100%" height="100%" viewBox="0 0 1024 1025" version="1.1" xmlns="http://www.w3.org/2000/svg" xmlns:xlink="http://www.w3.org/1999/xlink" xml:space="preserve" xmlns:serif="http://www.serif.com/" style="fill-rule:evenodd;clip-rule:evenodd;stroke-linejoin:round;stroke-miterlimit:2;">
    <ellipse cx="511.995" cy="512.001" rx="511.995" ry="512.001" style="fill:#fff;"/>
    <path d="M129.769,852.517c-80.703,-90.501 -129.769,-209.822 -129.769,-340.522c0,-282.576 229.419,-511.995 511.995,-511.995c282.576,-0 511.995,229.419 511.995,511.995c0,282.588 -229.419,512.007 -511.995,512.007c-9.1,0 -18.139,-0.245 -27.142,-0.71c41.007,-122.75 123.792,-318.732 257.431,-287.426c9.247,27.068 34.674,46.555 65.05,46.555c37.969,-0 68.675,-30.706 68.675,-68.687c-0.331,-22.451 -11.55,-42.587 -28.391,-55.129c-6.272,-4.961 -14.196,-9.247 -23.774,-12.885l-163.439,-62.735c8.917,0.661 17.491,0.992 25.746,0.992c55.153,0 100.716,-13.534 136.37,-40.945c77.261,-59.097 75.289,-159.483 75.289,-163.439c-0.33,-12.873 -11.231,-23.443 -24.104,-22.781c-12.885,0.33 -23.443,11.219 -22.782,24.104c0,0.661 1.642,80.237 -56.794,124.808c-13.865,10.57 -30.045,18.495 -48.208,23.774c52.164,-49.862 54.81,-123.816 54.81,-127.454c0.33,-12.873 -9.909,-23.774 -22.782,-24.104c-12.885,-0.331 -23.773,9.908 -24.104,22.781c0,0.661 -2.315,68.357 -51.185,103.68c-10.227,7.263 -21.789,12.885 -34.662,16.511c37.639,-39.954 39.623,-95.095 39.623,-97.74c0.33,-12.873 -9.909,-23.774 -22.782,-24.104c-12.885,-0.319 -23.773,9.908 -24.104,22.793c0,0.662 -2.315,50.511 -37.32,75.939c-22.12,16.179 -53.818,18.825 -94.433,10.9c-54.149,-10.57 -88.48,-30.706 -102.357,-60.432c-20.797,-44.24 9.247,-99.712 9.909,-100.704c7.263,-12.872 2.645,-29.383 -10.24,-36.646c-12.873,-7.263 -29.383,-2.976 -36.646,10.227c-1.654,2.976 -35.324,63.396 -20.467,125.8c-9.908,-9.565 -17.502,-19.805 -22.781,-31.367c-28.734,-61.412 12.542,-136.358 13.203,-137.681c7.263,-12.873 2.646,-29.383 -10.239,-36.646c-12.873,-7.276 -29.383,-2.976 -36.647,10.227c-1.984,3.638 -48.539,87.17 -22.45,168.73c-16.841,-14.857 -29.065,-31.368 -36.99,-49.862c-31.367,-71.982 17.172,-149.905 17.503,-150.897c7.925,-12.542 4.299,-29.052 -8.255,-37.308c-12.542,-7.924 -29.053,-4.299 -37.308,8.256c-2.646,4.287 -64.388,102.357 -21.789,200.758c32.028,73.954 112.584,125.139 239.377,152.538c10.239,2.646 49.862,11.893 54.161,12.873l-1.323,-0l-162.128,11.562c-0,0 16.51,92.779 139.677,37.308l-343.424,247.081Zm457.001,-192.271c-13.865,0 -25.427,-11.219 -25.427,-25.415c-0,-13.877 11.231,-25.427 25.427,-25.427c13.865,0 25.427,11.219 25.427,25.427c-0,13.865 -11.562,25.415 -25.427,25.415Z" style="fill:#15115f;"/>
</svg>
