<?xml version="1.0" encoding="UTF-8" standalone="no"?>
<!DOCTYPE svg PUBLIC "-//W3C//DTD SVG 1.1//EN" "http://www.w3.org/Graphics/SVG/1.1/DTD/svg11.dtd">
<svg width="100%" height="100%" viewBox="0 0 1920 720" version="1.1" xmlns="http://www.w3.org/2000/svg" xmlns:xlink="http://www.w3.org/1999/xlink" xml:space="preserve" xmlns:serif="http://www.serif.com/" style="fill-rule:evenodd;clip-rule:evenodd;stroke-linecap:round;stroke-linejoin:round;stroke-miterlimit:1.5;">
    <g>
        <path d="M1321.59,517.892C1281.75,581.31 1199.3,569.319 1089.91,526.093C878.132,442.401 565.422,241.623 265.735,244.358C174.903,245.187 43.053,213.848 0,151.859" style="fill:none;stroke:#fff;stroke-width:1px;"/>
        <path d="M1321.59,517.892C1280.88,582.7 1195.66,584.757 1082.68,539.204C871.253,453.961 562.621,258.03 266.588,260.351C175.464,261.065 89.598,252.722 0,223.859" style="fill:none;stroke:#fff;stroke-width:1px;"/>
        <path d="M1321.59,517.892C1280.08,583.983 1192.27,600.174 1075.93,552.462C864.724,465.838 559.489,274.055 266.588,276.351C175.464,277.065 119.905,273.992 0,287.859" style="fill:none;stroke:#fff;stroke-width:1px;"/>
        <path d="M1321.59,517.892C1279.43,585.008 1189.53,615.664 1070.5,566.22C859.512,478.577 556.988,290.074 266.588,292.351C175.464,293.065 98.993,309.269 0,343.859" style="fill:none;stroke:#fff;stroke-width:1px;"/>
        <path d="M1321.59,517.892C1278.71,586.16 1186.43,631.043 1064.35,579.645C853.728,490.975 554.389,306.228 266.896,308.349C175.667,309.021 85.63,352.511 0,399.859" style="fill:none;stroke:#fff;stroke-width:1px;"/>
        <path d="M1321.59,517.892C1278.25,586.886 1184.47,646.627 1060.45,593.996C849.94,504.663 552.331,322.065 266.482,324.352C175.394,325.081 49.015,383.794 0,487.859" style="fill:none;stroke:#fff;stroke-width:1px;"/>
    </g>
</svg>
