<?xml version="1.0" encoding="UTF-8" standalone="no"?>
<!DOCTYPE svg PUBLIC "-//W3C//DTD SVG 1.1//EN" "http://www.w3.org/Graphics/SVG/1.1/DTD/svg11.dtd">
<svg width="100%" height="100%" viewBox="0 0 1920 720" version="1.1" xmlns="http://www.w3.org/2000/svg" xmlns:xlink="http://www.w3.org/1999/xlink" xml:space="preserve" xmlns:serif="http://www.serif.com/" style="fill-rule:evenodd;clip-rule:evenodd;stroke-linecap:round;stroke-linejoin:round;stroke-miterlimit:1.5;">
    <g>
        <path d="M1321.59,517.892C1281.75,581.31 1202.41,560.408 1089.91,526.093C852.923,453.803 618.241,289.604 265.735,244.358C103.756,223.567 45.791,186.859 0,151.859" style="fill:none;stroke:#fff;stroke-width:1px;"/>
        <path d="M1321.59,517.892C1280.88,582.7 1197.81,579.005 1082.68,539.204C860.174,462.287 625.421,295.128 266.588,260.351C175.886,251.561 89.598,252.722 0,223.859" style="fill:none;stroke:#fff;stroke-width:1px;"/>
        <path d="M1321.59,517.892C1280.08,583.983 1192.27,600.174 1075.93,552.462C864.724,465.838 559.489,274.055 266.588,276.351C175.464,277.065 119.905,273.992 0,287.859" style="fill:none;stroke:#fff;stroke-width:1px;"/>
        <path d="M1321.59,517.892C1279.43,585.008 1187.15,621.052 1070.5,566.22C864.524,469.395 563.279,278.548 266.588,292.351C175.56,296.586 98.993,309.269 0,343.859" style="fill:none;stroke:#fff;stroke-width:1px;"/>
        <path d="M1321.59,517.892C1278.71,586.16 1181.57,641.333 1064.35,579.645C857.391,470.735 559.092,280.238 266.896,308.349C176.084,317.085 85.63,352.511 0,399.859" style="fill:none;stroke:#fff;stroke-width:1px;"/>
        <path d="M1321.59,517.892C1278.25,586.886 1175.95,663.345 1060.45,593.996C868.391,478.689 545.711,279.918 266.482,324.352C176.523,338.667 49.015,383.794 0,487.859" style="fill:none;stroke:#fff;stroke-width:1px;"/>
    </g>
</svg>
